<svg width="143" height="85" viewBox="0 0 143 85" fill="none" xmlns="http://www.w3.org/2000/svg">
<path opacity="0.75" d="M0 53.0164C11.577 53.0164 20.9752 43.6132 20.9752 32.0302C20.9752 20.4471 11.577 11.0439 0 11.0439V21.1629V53.0164Z" fill="#F44336"/>
<path opacity="0.75" d="M10.4713 53.0166C22.0483 53.0166 31.4466 43.6135 31.4466 32.0304C31.4466 20.4473 22.0483 11.0442 10.4713 11.0442V21.1631V53.0166Z" fill="#FFA000"/>
<path d="M41.0014 19.5667C40.4356 20.1326 39.7598 20.4155 38.9739 20.4155C38.188 20.4155 37.5121 20.1326 36.9463 19.5667C36.4119 19.0009 36.1447 18.325 36.1447 17.5391C36.1447 16.7847 36.4119 16.1403 36.9463 15.6059C37.5121 15.04 38.188 14.7571 38.9739 14.7571C39.7598 14.7571 40.4356 15.04 41.0014 15.6059C41.5673 16.1403 41.8502 16.7847 41.8502 17.5391C41.8502 18.325 41.5673 19.0009 41.0014 19.5667ZM36.5691 48V24.6592H41.4258V48H36.5691Z" fill="#F77268"/>
<path d="M60.2347 48.3301C56.714 48.3301 53.8534 47.1198 51.6529 44.6993V48H46.7018V12.6352H51.6529V28.0071C53.7905 25.5552 56.6511 24.3292 60.2347 24.3292C63.4097 24.3292 66.0503 25.4766 68.1564 27.7713C70.294 30.0661 71.3628 32.9267 71.3628 36.3532C71.3628 39.7482 70.294 42.5931 68.1564 44.8879C66.0503 47.1827 63.4097 48.3301 60.2347 48.3301ZM59.0559 44.0391C61.1306 44.0391 62.8753 43.3004 64.2899 41.823C65.7045 40.3455 66.4118 38.5222 66.4118 36.3532C66.4118 34.1527 65.7045 32.3138 64.2899 30.8363C62.9067 29.3588 61.1621 28.6201 59.0559 28.6201C56.9497 28.6201 55.1894 29.3588 53.7748 30.8363C52.3602 32.3138 51.6529 34.1527 51.6529 36.3532C51.6529 38.4908 52.3602 40.3141 53.7748 41.823C55.1894 43.3004 56.9497 44.0391 59.0559 44.0391ZM82.4604 48.0943C80.3228 48.0943 78.6253 47.4656 77.3679 46.2082C76.1104 44.9193 75.4817 43.1432 75.4817 40.8799V12.6352H80.4328V39.984C80.4328 41.1471 80.7314 42.0273 81.3287 42.6246C81.9574 43.2218 82.759 43.5205 83.7335 43.5205C84.1736 43.5205 84.6766 43.4419 85.2424 43.2847L85.7611 47.6228C84.4408 47.9371 83.3406 48.0943 82.4604 48.0943ZM108.647 45.0294C106.226 47.4184 103.303 48.613 99.8761 48.613C96.4496 48.613 93.5261 47.4184 91.1056 45.0294C88.6851 42.6088 87.4748 39.7011 87.4748 36.306C87.4748 32.8796 88.6851 29.9718 91.1056 27.5827C93.5261 25.1622 96.4496 23.952 99.8761 23.952C103.334 23.952 106.273 25.1622 108.694 27.5827C111.114 29.9718 112.324 32.8796 112.324 36.306C112.324 39.7011 111.098 42.6088 108.647 45.0294ZM99.8761 43.9448C101.919 43.9763 103.648 43.2533 105.063 41.7758C106.477 40.2983 107.185 38.4908 107.185 36.3532C107.185 34.1842 106.477 32.3609 105.063 30.8834C103.648 29.406 101.919 28.683 99.8761 28.7144C97.8328 28.683 96.1038 29.406 94.6892 30.8834C93.3061 32.3609 92.6145 34.1842 92.6145 36.3532C92.6145 38.4908 93.3061 40.2983 94.6892 41.7758C96.1038 43.2533 97.8328 43.9763 99.8761 43.9448ZM127.165 59.7883C124.713 59.8197 122.465 59.3167 120.422 58.2794C118.41 57.242 116.807 55.8588 115.612 54.1299L119.196 51.0178C121.176 53.7527 123.848 55.1201 127.212 55.1201C129.318 55.1201 131.157 54.4128 132.729 52.9982C134.301 51.5836 135.086 49.5875 135.086 47.0098V44.6993C133.169 47.1198 130.355 48.3301 126.646 48.3301C123.408 48.3301 120.705 47.1827 118.536 44.8879C116.398 42.5931 115.329 39.7482 115.329 36.3532C115.329 32.9267 116.398 30.0661 118.536 27.7713C120.705 25.4766 123.408 24.3292 126.646 24.3292C130.198 24.3292 133.012 25.5394 135.086 27.96V24.6592H140.038V46.7269C140.038 50.9078 138.796 54.1142 136.312 56.3461C133.829 58.6094 130.78 59.7568 127.165 59.7883ZM127.636 44.0391C129.742 44.0391 131.503 43.3004 132.917 41.823C134.363 40.3141 135.086 38.4908 135.086 36.3532C135.086 34.1527 134.363 32.3138 132.917 30.8363C131.503 29.3588 129.742 28.6201 127.636 28.6201C125.562 28.6201 123.817 29.3588 122.402 30.8363C121.019 32.3138 120.328 34.1527 120.328 36.3532C120.328 38.5222 121.019 40.3455 122.402 41.823C123.817 43.3004 125.562 44.0391 127.636 44.0391Z" fill="#FC9419"/>
<path d="M3.62852 76L0.220424 64.131H2.2212L4.76456 73.4906L7.64703 64.131H9.42738L12.3268 73.4906L14.8532 64.131H16.8709L13.4628 76H11.3095L8.54568 67.2678L5.76494 76H3.62852ZM17.8394 76V67.6069H19.6197V68.743C20.2641 67.8726 21.3436 67.4487 22.8583 67.4713V69.3534C22.5418 69.229 22.1744 69.1668 21.7562 69.1668C21.1684 69.1668 20.6653 69.3986 20.2471 69.862C19.8289 70.3142 19.6197 70.9415 19.6197 71.7441V76H17.8394ZM25.7743 65.7757C25.5708 65.9792 25.3278 66.0809 25.0452 66.0809C24.7626 66.0809 24.5195 65.9792 24.3161 65.7757C24.1239 65.5722 24.0278 65.3292 24.0278 65.0466C24.0278 64.7753 24.1239 64.5436 24.3161 64.3514C24.5195 64.148 24.7626 64.0462 25.0452 64.0462C25.3278 64.0462 25.5708 64.148 25.7743 64.3514C25.9777 64.5436 26.0795 64.7753 26.0795 65.0466C26.0795 65.3292 25.9777 65.5722 25.7743 65.7757ZM24.1804 76V67.6069H25.9269V76H24.1804ZM31.9439 76.0339C31.0848 76.0339 30.3896 75.7965 29.8583 75.3218C29.3384 74.8357 29.0784 74.1744 29.0784 73.338V69.1668H27.1624V67.6069H29.0784V65.1653H30.8418V67.6069H33.2156V69.1668H30.8418V72.9649C30.8418 73.9258 31.3391 74.4062 32.3339 74.4062C32.6504 74.4062 32.9556 74.3553 33.2495 74.2536L33.453 75.7965C32.9104 75.9548 32.4074 76.0339 31.9439 76.0339ZM38.7288 67.3695C39.961 67.3695 40.9726 67.7595 41.7639 68.5395C42.5552 69.3194 42.9621 70.3594 42.9847 71.6593C42.9847 71.9193 42.9791 72.1228 42.9678 72.2697H35.982C36.0724 73.0271 36.372 73.6319 36.8807 74.084C37.4006 74.5249 38.0167 74.7453 38.7288 74.7453C39.8027 74.7453 40.6335 74.3666 41.2213 73.6092L42.3065 74.5249C41.9222 75.0561 41.4078 75.4687 40.7635 75.7626C40.1305 76.0565 39.4523 76.2035 38.7288 76.2035C37.4854 76.2035 36.4398 75.7796 35.592 74.9318C34.7555 74.084 34.3373 73.0441 34.3373 71.8119C34.3373 70.5572 34.7555 69.506 35.592 68.6582C36.4285 67.7991 37.4741 67.3695 38.7288 67.3695ZM38.7288 68.7599C38.028 68.7599 37.4289 68.9747 36.9315 69.4042C36.4455 69.8225 36.1403 70.3877 36.0159 71.0998H41.3909C41.2439 70.3651 40.9331 69.7942 40.4583 69.3873C39.9949 68.969 39.4184 68.7599 38.7288 68.7599ZM43.3185 78.696L44.1155 75.0674H45.7771L44.8785 78.696H43.3185ZM60.3944 76H58.3428L56.0537 71.5067H53.2391V76H51.3909V64.131H56.2742C57.3706 64.131 58.2975 64.4645 59.0549 65.1314C59.8122 65.7983 60.1909 66.697 60.1909 67.8273C60.1909 68.6751 59.9705 69.3929 59.5297 69.9807C59.1001 70.5685 58.5293 70.9924 57.8171 71.2524L60.3944 76ZM53.2391 65.7757V69.8959H56.0876C56.7546 69.8959 57.2915 69.7094 57.6984 69.3364C58.1054 68.9634 58.3088 68.466 58.3088 67.8443C58.3088 67.2226 58.1054 66.7252 57.6984 66.3522C57.2915 65.9679 56.7546 65.7757 56.0876 65.7757H53.2391ZM65.338 67.3695C66.5702 67.3695 67.5819 67.7595 68.3731 68.5395C69.1644 69.3194 69.5713 70.3594 69.5939 71.6593C69.5939 71.9193 69.5883 72.1228 69.577 72.2697H62.5912C62.6816 73.0271 62.9812 73.6319 63.4899 74.084C64.0098 74.5249 64.6259 74.7453 65.338 74.7453C66.4119 74.7453 67.2427 74.3666 67.8305 73.6092L68.9157 74.5249C68.5314 75.0561 68.017 75.4687 67.3727 75.7626C66.7397 76.0565 66.0615 76.2035 65.338 76.2035C64.0946 76.2035 63.049 75.7796 62.2012 74.9318C61.3648 74.084 60.9465 73.0441 60.9465 71.8119C60.9465 70.5572 61.3648 69.506 62.2012 68.6582C63.0377 67.7991 64.0833 67.3695 65.338 67.3695ZM65.338 68.7599C64.6372 68.7599 64.0381 68.9747 63.5407 69.4042C63.0547 69.8225 62.7495 70.3877 62.6251 71.0998H68.0001C67.8531 70.3651 67.5423 69.7942 67.0675 69.3873C66.6041 68.969 66.0276 68.7599 65.338 68.7599ZM74.5188 76.1187C73.3884 76.1187 72.4389 75.7061 71.6702 74.8809C70.9016 74.0444 70.5172 73.0214 70.5172 71.8119C70.5172 70.5798 70.8959 69.5512 71.6533 68.726C72.4219 67.9008 73.3771 67.4882 74.5188 67.4882C75.8187 67.4882 76.8474 67.9234 77.6047 68.7938V67.6069H79.3851V76H77.6047V74.8131C76.8361 75.6835 75.8074 76.1187 74.5188 76.1187ZM73.0436 73.7788C73.5523 74.3101 74.1853 74.5757 74.9427 74.5757C75.7 74.5757 76.333 74.3101 76.8417 73.7788C77.3504 73.2362 77.6047 72.5806 77.6047 71.8119C77.6047 71.0207 77.3504 70.3594 76.8417 69.8281C76.333 69.2968 75.7 69.0312 74.9427 69.0312C74.1853 69.0312 73.5523 69.2968 73.0436 69.8281C72.535 70.3594 72.2806 71.0207 72.2806 71.8119C72.2806 72.5806 72.535 73.2362 73.0436 73.7788ZM84.8677 76.1187C83.7373 76.1187 82.7878 75.7061 82.0192 74.8809C81.2505 74.0444 80.8662 73.0214 80.8662 71.8119C80.8662 70.5798 81.2448 69.5512 82.0022 68.726C82.7709 67.9008 83.726 67.4882 84.8677 67.4882C86.1903 67.4882 87.2189 67.9291 87.9537 68.8108V63.2832H89.734V76H87.9537V74.8131C87.1963 75.6835 86.1677 76.1187 84.8677 76.1187ZM85.2916 74.5757C86.049 74.5757 86.682 74.3101 87.1907 73.7788C87.6993 73.2362 87.9537 72.5806 87.9537 71.8119C87.9537 71.0207 87.6993 70.3594 87.1907 69.8281C86.682 69.2968 86.049 69.0312 85.2916 69.0312C84.5343 69.0312 83.9012 69.2968 83.3926 69.8281C82.8952 70.3594 82.6465 71.0207 82.6465 71.8119C82.6465 72.5919 82.9009 73.2475 83.4095 73.7788C83.9182 74.3101 84.5456 74.5757 85.2916 74.5757ZM90.7912 78.696L91.5881 75.0674H93.2498L92.3511 78.696H90.7912ZM98.8636 76V64.131H106.951V65.7927H100.729V69.2347H106.816V70.8624H100.729V74.3383H106.951V76H98.8636ZM108.629 76V67.6069H110.409V68.6921C111.076 67.8895 111.952 67.4882 113.037 67.4882C114.145 67.4882 115.032 67.85 115.699 68.5734C116.377 69.2855 116.717 70.3142 116.717 71.6593V76H114.936V71.8119C114.936 70.885 114.733 70.1898 114.326 69.7264C113.919 69.2629 113.388 69.0312 112.732 69.0312C112.031 69.0312 111.466 69.2855 111.036 69.7942C110.618 70.2916 110.409 70.9868 110.409 71.8798V76H108.629ZM120.122 65.7757C119.93 65.9679 119.692 66.064 119.41 66.064C119.127 66.064 118.884 65.9679 118.681 65.7757C118.489 65.5722 118.392 65.3292 118.392 65.0466C118.392 64.7753 118.489 64.5436 118.681 64.3514C118.884 64.148 119.127 64.0462 119.41 64.0462C119.692 64.0462 119.93 64.148 120.122 64.3514C120.325 64.5436 120.427 64.7753 120.427 65.0466C120.427 65.3292 120.325 65.5722 120.122 65.7757ZM117.494 80.222C117.121 80.222 116.714 80.1711 116.273 80.0694L116.493 78.4586C116.72 78.5038 116.906 78.5264 117.053 78.5264C117.483 78.5264 117.833 78.4021 118.104 78.1534C118.387 77.916 118.528 77.5486 118.528 77.0513V67.6069H120.308V77.4243C120.308 78.3173 120.048 79.0068 119.529 79.4929C119.02 79.9789 118.342 80.222 117.494 80.222ZM129.446 74.9318C128.576 75.7909 127.524 76.2204 126.292 76.2204C125.06 76.2204 124.009 75.7909 123.139 74.9318C122.268 74.0614 121.833 73.0158 121.833 71.795C121.833 70.5629 122.268 69.5173 123.139 68.6582C124.009 67.7878 125.06 67.3526 126.292 67.3526C127.536 67.3526 128.593 67.7878 129.463 68.6582C130.333 69.5173 130.769 70.5629 130.769 71.795C130.769 73.0158 130.328 74.0614 129.446 74.9318ZM126.292 74.5418C127.027 74.5531 127.649 74.2931 128.158 73.7618C128.666 73.2306 128.921 72.5806 128.921 71.8119C128.921 71.032 128.666 70.3764 128.158 69.8451C127.649 69.3138 127.027 69.0538 126.292 69.0651C125.558 69.0538 124.936 69.3138 124.427 69.8451C123.93 70.3764 123.681 71.032 123.681 71.8119C123.681 72.5806 123.93 73.2306 124.427 73.7618C124.936 74.2931 125.558 74.5531 126.292 74.5418ZM131.891 80.2389L132.061 78.5773C133.248 78.5434 134.022 78.0121 134.384 76.9834L134.807 75.983L131.196 67.6069H133.095L135.706 74.2366L138.233 67.6069H140.132L135.977 77.5599C135.57 78.5321 135.034 79.2216 134.367 79.6285C133.7 80.0355 132.875 80.2389 131.891 80.2389Z" fill="#4D5A66"/>
</svg>
