<svg width="8" height="13" viewBox="0 0 8 13" fill="none" xmlns="http://www.w3.org/2000/svg">
<path d="M7.64677 6.01871L2.49513 0.876165C2.41051 0.790855 2.30984 0.723142 2.19893 0.676933C2.08802 0.630724 1.96905 0.606934 1.84889 0.606934C1.72874 0.606934 1.60977 0.630724 1.49886 0.676933C1.38794 0.723142 1.28728 0.790855 1.20266 0.876165C1.03314 1.0467 0.937988 1.27739 0.937988 1.51784C0.937988 1.7583 1.03314 1.98899 1.20266 2.15953L5.70808 6.71045L1.20266 11.2159C1.03314 11.3864 0.937988 11.6171 0.937988 11.8575C0.937988 12.098 1.03314 12.3287 1.20266 12.4992C1.28696 12.5852 1.38748 12.6536 1.49841 12.7005C1.60934 12.7474 1.72847 12.7718 1.84889 12.7723C1.96932 12.7718 2.08845 12.7474 2.19937 12.7005C2.3103 12.6536 2.41083 12.5852 2.49513 12.4992L7.64677 7.35668C7.73916 7.27145 7.81289 7.16801 7.86332 7.05287C7.91375 6.93773 7.93979 6.81339 7.93979 6.6877C7.93979 6.562 7.91375 6.43766 7.86332 6.32252C7.81289 6.20739 7.73916 6.10394 7.64677 6.01871Z" fill="#546371"/>
</svg>
