<svg width="18" height="15" viewBox="0 0 18 15" fill="none" xmlns="http://www.w3.org/2000/svg">
<path d="M15.8001 1.70725C14.9167 0.82159 13.7457 0.281034 12.4987 0.183225C11.2516 0.0854171 10.0107 0.436805 9.00007 1.17392C7.93978 0.385282 6.62006 0.0276765 5.30667 0.173115C3.99327 0.318553 2.78377 0.956232 1.92171 1.95774C1.05966 2.95924 0.609085 4.25018 0.660734 5.5706C0.712383 6.89101 1.26242 8.14281 2.20007 9.07392L7.37507 14.2573C7.80842 14.6837 8.39206 14.9228 9.00007 14.9228C9.60808 14.9228 10.1917 14.6837 10.6251 14.2573L15.8001 9.07392C16.7731 8.09497 17.3192 6.77081 17.3192 5.39058C17.3192 4.01036 16.7731 2.6862 15.8001 1.70725ZM14.6251 7.92392L9.45007 13.0989C9.39118 13.1584 9.32109 13.2056 9.24385 13.2378C9.16661 13.27 9.08375 13.2866 9.00007 13.2866C8.91638 13.2866 8.83352 13.27 8.75628 13.2378C8.67904 13.2056 8.60896 13.1584 8.55007 13.0989L3.37507 7.89892C2.72153 7.23087 2.35558 6.33347 2.35558 5.39892C2.35558 4.46436 2.72153 3.56696 3.37507 2.89892C4.04103 2.24141 4.93921 1.87272 5.87507 1.87272C6.81092 1.87272 7.7091 2.24141 8.37507 2.89892C8.45254 2.97702 8.5447 3.03902 8.64625 3.08133C8.7478 3.12363 8.85672 3.14542 8.96673 3.14542C9.07674 3.14542 9.18567 3.12363 9.28721 3.08133C9.38876 3.03902 9.48093 2.97702 9.5584 2.89892C10.2244 2.24141 11.1225 1.87272 12.0584 1.87272C12.9943 1.87272 13.8924 2.24141 14.5584 2.89892C15.2209 3.55821 15.5989 4.45074 15.6114 5.38532C15.6238 6.3199 15.2698 7.2222 14.6251 7.89892V7.92392Z" fill="#97989F"/>
</svg>
