<svg width="15" height="15" viewBox="0 0 15 15" fill="none" xmlns="http://www.w3.org/2000/svg">
<path d="M6.41748 1.87402L7.10498 1.18652C7.41748 0.905273 7.88623 0.905273 8.16748 1.18652L14.2612 7.24902C14.5425 7.56152 14.5425 8.03027 14.2612 8.31152L8.16748 14.4053C7.88623 14.6865 7.41748 14.6865 7.10498 14.4053L6.41748 13.7178C6.13623 13.4053 6.13623 12.9365 6.41748 12.624L10.1987 9.03027H1.22998C0.79248 9.03027 0.47998 8.71777 0.47998 8.28027V7.28027C0.47998 6.87402 0.79248 6.53027 1.22998 6.53027H10.1987L6.41748 2.96777C6.13623 2.65527 6.10498 2.18652 6.41748 1.87402Z" fill="#C69B7B"/>
</svg>
