<svg width="17" height="18" viewBox="0 0 17 18" fill="none" xmlns="http://www.w3.org/2000/svg">
<path d="M15.8962 1.81152C16.24 1.90527 16.49 2.18652 16.49 2.53027C16.49 10.5615 9.98999 17.0303 1.98999 17.0303C1.61499 17.0303 1.33374 16.8115 1.23999 16.4678L0.48999 13.2178C0.42749 12.874 0.58374 12.499 0.92749 12.3428L4.42749 10.8428C4.73999 10.7178 5.08374 10.8115 5.30249 11.0615L6.86499 12.9678C9.30249 11.8115 11.2712 9.81152 12.3962 7.43652L10.49 5.87402C10.24 5.65527 10.1462 5.31152 10.2712 4.99902L11.7712 1.49902C11.9275 1.15527 12.3025 0.967773 12.6462 1.06152L15.8962 1.81152Z" fill="#C69B7B"/>
</svg>
