<svg width="46" height="46" viewBox="0 0 46 46" fill="none" xmlns="http://www.w3.org/2000/svg">
<path d="M29.45 14.6055C30.0476 14.6055 30.575 15.1328 30.575 15.7656V29.2305C30.575 29.8633 30.0476 30.3555 29.45 30.3555H15.9148C15.3171 30.3555 14.825 29.8633 14.825 29.2305V15.7656C14.825 15.1328 15.3171 14.6055 15.9148 14.6055H29.45ZM19.571 28.1055V20.6172H17.2507V28.1055H19.571ZM18.4109 19.5625C19.1492 19.5625 19.7468 18.9648 19.7468 18.2266C19.7468 17.4883 19.1492 16.8555 18.4109 16.8555C17.6375 16.8555 17.0398 17.4883 17.0398 18.2266C17.0398 18.9648 17.6375 19.5625 18.4109 19.5625ZM28.325 28.1055V23.9922C28.325 21.9883 27.8679 20.4062 25.5125 20.4062C24.3875 20.4062 23.614 21.0391 23.2976 21.6367H23.2625V20.6172H21.0476V28.1055H23.3679V24.4141C23.3679 23.4297 23.5437 22.4805 24.7742 22.4805C25.9695 22.4805 25.9695 23.6055 25.9695 24.4492V28.1055H28.325Z" fill="#C69B7B"/>
<rect x="0.609985" y="1.48047" width="44" height="44" rx="22" stroke="#C69B7B"/>
</svg>
