<svg width="46" height="46" viewBox="0 0 46 46" fill="none" xmlns="http://www.w3.org/2000/svg">
<path d="M22.7 18.4375C24.9148 18.4375 26.7429 20.2656 26.7429 22.4805C26.7429 24.7305 24.9148 26.5234 22.7 26.5234C20.45 26.5234 18.657 24.7305 18.657 22.4805C18.657 20.2656 20.45 18.4375 22.7 18.4375ZM22.7 25.1172C24.1414 25.1172 25.3015 23.957 25.3015 22.4805C25.3015 21.0391 24.1414 19.8789 22.7 19.8789C21.2234 19.8789 20.0632 21.0391 20.0632 22.4805C20.0632 23.957 21.2585 25.1172 22.7 25.1172ZM27.8328 18.2969C27.8328 18.8242 27.4109 19.2461 26.8835 19.2461C26.3562 19.2461 25.9343 18.8242 25.9343 18.2969C25.9343 17.7695 26.3562 17.3477 26.8835 17.3477C27.4109 17.3477 27.8328 17.7695 27.8328 18.2969ZM30.5046 19.2461C30.575 20.5469 30.575 24.4492 30.5046 25.75C30.4343 27.0156 30.1531 28.1055 29.239 29.0547C28.325 29.9688 27.2 30.25 25.9343 30.3203C24.6335 30.3906 20.7312 30.3906 19.4304 30.3203C18.1648 30.25 17.075 29.9688 16.1257 29.0547C15.2117 28.1055 14.9304 27.0156 14.8601 25.75C14.7898 24.4492 14.7898 20.5469 14.8601 19.2461C14.9304 17.9805 15.2117 16.8555 16.1257 15.9414C17.075 15.0273 18.1648 14.7461 19.4304 14.6758C20.7312 14.6055 24.6335 14.6055 25.9343 14.6758C27.2 14.7461 28.325 15.0273 29.239 15.9414C30.1531 16.8555 30.4343 17.9805 30.5046 19.2461ZM28.8171 27.1211C29.239 26.1016 29.1335 23.6406 29.1335 22.4805C29.1335 21.3555 29.239 18.8945 28.8171 17.8398C28.5359 17.1719 28.0085 16.6094 27.3406 16.3633C26.2859 15.9414 23.825 16.0469 22.7 16.0469C21.5398 16.0469 19.0789 15.9414 18.0593 16.3633C17.3562 16.6445 16.8289 17.1719 16.5476 17.8398C16.1257 18.8945 16.2312 21.3555 16.2312 22.4805C16.2312 23.6406 16.1257 26.1016 16.5476 27.1211C16.8289 27.8242 17.3562 28.3516 18.0593 28.6328C19.0789 29.0547 21.5398 28.9492 22.7 28.9492C23.825 28.9492 26.2859 29.0547 27.3406 28.6328C28.0085 28.3516 28.571 27.8242 28.8171 27.1211Z" fill="#C69B7B"/>
<rect x="0.609985" y="1.48047" width="44" height="44" rx="22" stroke="#C69B7B"/>
</svg>
