<svg width="46" height="46" viewBox="0 0 46 46" fill="none" xmlns="http://www.w3.org/2000/svg">
<path d="M29.8517 18.8242C29.8517 19 29.8517 19.1406 29.8517 19.3164C29.8517 24.2031 26.1603 29.793 19.3751 29.793C17.2657 29.793 15.3322 29.1953 13.715 28.1406C13.9962 28.1758 14.2775 28.2109 14.5939 28.2109C16.3165 28.2109 17.8986 27.6133 19.1642 26.6289C17.547 26.5938 16.1759 25.5391 15.7189 24.0625C15.965 24.0977 16.1759 24.1328 16.422 24.1328C16.7384 24.1328 17.09 24.0625 17.3712 23.9922C15.6837 23.6406 14.4181 22.1641 14.4181 20.3711V20.3359C14.9103 20.6172 15.5079 20.7578 16.1056 20.793C15.0861 20.125 14.4532 19 14.4532 17.7344C14.4532 17.0312 14.629 16.3984 14.9454 15.8711C16.7736 18.0859 19.5157 19.5625 22.5743 19.7383C22.504 19.457 22.4689 19.1758 22.4689 18.8945C22.4689 16.8555 24.1212 15.2031 26.1603 15.2031C27.215 15.2031 28.1642 15.625 28.8673 16.3633C29.6759 16.1875 30.4845 15.8711 31.1876 15.4492C30.9064 16.3281 30.3439 17.0312 29.5704 17.4883C30.3087 17.418 31.047 17.207 31.6798 16.9258C31.1876 17.6641 30.5548 18.2969 29.8517 18.8242Z" fill="#C69B7B"/>
<rect x="0.609985" y="1.48047" width="44" height="44" rx="22" stroke="#C69B7B"/>
</svg>
