<svg width="13" height="17" viewBox="0 0 13 17" fill="none" xmlns="http://www.w3.org/2000/svg">
<path d="M5.86499 16.4873C1.30249 9.9248 0.48999 9.2373 0.48999 6.7998C0.48999 3.4873 3.14624 0.799805 6.48999 0.799805C9.80249 0.799805 12.49 3.4873 12.49 6.7998C12.49 9.2373 11.6462 9.9248 7.08374 16.4873C6.80249 16.9248 6.14624 16.9248 5.86499 16.4873ZM6.48999 9.2998C7.86499 9.2998 8.98999 8.20605 8.98999 6.7998C8.98999 5.4248 7.86499 4.2998 6.48999 4.2998C5.08374 4.2998 3.98999 5.4248 3.98999 6.7998C3.98999 8.20605 5.08374 9.2998 6.48999 9.2998Z" fill="#C69B7B"/>
</svg>
