<svg width="41" height="31" viewBox="0 0 41 31" fill="none" xmlns="http://www.w3.org/2000/svg">
<path d="M39.625 10.7471C39.9375 10.5127 40.4062 10.7471 40.4062 11.1377V27.0752C40.4062 29.1846 38.6875 30.8252 36.6562 30.8252H4.15625C2.04688 30.8252 0.40625 29.1846 0.40625 27.0752V11.1377C0.40625 10.7471 0.796875 10.5127 1.10938 10.7471C2.90625 12.1533 5.17188 13.8721 13.1406 19.6533C14.7812 20.8252 17.5938 23.4033 20.4062 23.4033C23.1406 23.4033 26.0312 20.8252 27.5938 19.6533C35.5625 13.8721 37.8281 12.1533 39.625 10.7471ZM20.4062 20.8252C18.5312 20.9033 15.9531 18.5596 14.625 17.6221C4.23438 10.1221 3.45312 9.41895 1.10938 7.54395C0.640625 7.23145 0.40625 6.68457 0.40625 6.05957V4.5752C0.40625 2.54395 2.04688 0.825195 4.15625 0.825195H36.6562C38.6875 0.825195 40.4062 2.54395 40.4062 4.5752V6.05957C40.4062 6.68457 40.0938 7.23145 39.625 7.54395C37.2812 9.41895 36.5 10.1221 26.1094 17.6221C24.7812 18.5596 22.2031 20.9033 20.4062 20.8252Z" fill="#C69B7B"/>
</svg>
