<svg width="41" height="41" viewBox="0 0 41 41" fill="none" xmlns="http://www.w3.org/2000/svg">
<path d="M39.4269 2.77832C40.2863 3.0127 40.9113 3.71582 40.9113 4.5752C40.9113 24.6533 24.6613 40.8252 4.66125 40.8252C3.72375 40.8252 3.02063 40.2783 2.78625 39.4189L0.911255 31.2939C0.755005 30.4346 1.14563 29.4971 2.005 29.1064L10.755 25.3564C11.5363 25.0439 12.3956 25.2783 12.9425 25.9033L16.8488 30.6689C22.9425 27.7783 27.8644 22.7783 30.6769 16.8408L25.9113 12.9346C25.2863 12.3877 25.0519 11.5283 25.3644 10.7471L29.1144 1.99707C29.505 1.1377 30.4425 0.668945 31.3019 0.90332L39.4269 2.77832Z" fill="#C69B7B"/>
</svg>
