<svg width="22" height="19" viewBox="0 0 22 19" fill="none" xmlns="http://www.w3.org/2000/svg">
<path d="M19.3179 11.2915C19.2124 11.6782 18.8608 11.9243 18.4741 11.9243H8.17334L8.41943 13.0493H17.8413C18.3687 13.0493 18.7905 13.5767 18.6499 14.104L18.4741 14.9478C19.1421 15.2642 19.5991 15.9321 19.5991 16.7056C19.5991 17.7954 18.6851 18.6743 17.6304 18.6743C16.5405 18.6743 15.6616 17.7954 15.6616 16.7056C15.6616 16.1782 15.8726 15.686 16.2241 15.2993H8.87646C9.22803 15.686 9.47412 16.1782 9.47412 16.7056C9.47412 17.7954 8.56006 18.6743 7.50537 18.6743C6.41553 18.6743 5.53662 17.7954 5.53662 16.7056C5.53662 16.0024 5.92334 15.3696 6.521 15.0181L4.0249 2.92432H1.59912C1.10693 2.92432 0.755371 2.57275 0.755371 2.08057V1.51807C0.755371 1.06104 1.10693 0.674316 1.59912 0.674316H5.18506C5.57178 0.674316 5.92334 0.990723 6.02881 1.37744L6.34521 2.92432H20.1265C20.689 2.92432 21.0757 3.45166 20.9702 3.979L19.3179 11.2915Z" fill="white"/>
</svg>
