<svg width="17" height="13" viewBox="0 0 17 13" fill="none" xmlns="http://www.w3.org/2000/svg">
<path d="M16.1775 4.17871C16.3025 4.08496 16.49 4.17871 16.49 4.33496V10.71C16.49 11.5537 15.8025 12.21 14.99 12.21H1.98999C1.14624 12.21 0.48999 11.5537 0.48999 10.71V4.33496C0.48999 4.17871 0.64624 4.08496 0.77124 4.17871C1.48999 4.74121 2.39624 5.42871 5.58374 7.74121C6.23999 8.20996 7.36499 9.24121 8.48999 9.24121C9.58374 9.24121 10.74 8.20996 11.365 7.74121C14.5525 5.42871 15.4587 4.74121 16.1775 4.17871ZM8.48999 8.20996C7.73999 8.24121 6.70874 7.30371 6.17749 6.92871C2.02124 3.92871 1.70874 3.64746 0.77124 2.89746C0.58374 2.77246 0.48999 2.55371 0.48999 2.30371V1.70996C0.48999 0.897461 1.14624 0.209961 1.98999 0.209961H14.99C15.8025 0.209961 16.49 0.897461 16.49 1.70996V2.30371C16.49 2.55371 16.365 2.77246 16.1775 2.89746C15.24 3.64746 14.9275 3.92871 10.7712 6.92871C10.24 7.30371 9.20874 8.24121 8.48999 8.20996Z" fill="#C69B7B"/>
</svg>
