<svg width="26" height="29" viewBox="0 0 26 29" fill="none" xmlns="http://www.w3.org/2000/svg">
<path d="M12.8804 14.6743C10.3843 14.6743 8.38037 12.6704 8.38037 10.1743C8.38037 7.71338 10.3843 5.67432 12.8804 5.67432C15.3413 5.67432 17.3804 7.71338 17.3804 10.1743C17.3804 12.6704 15.3413 14.6743 12.8804 14.6743ZM16.0093 15.7993C18.6108 15.7993 20.7554 17.9438 20.7554 20.5454V21.9868C20.7554 22.936 19.9819 23.6743 19.0679 23.6743H6.69287C5.74365 23.6743 5.00537 22.936 5.00537 21.9868V20.5454C5.00537 17.9438 7.11475 15.7993 9.71631 15.7993H10.314C11.0874 16.186 11.9663 16.3618 12.8804 16.3618C13.7944 16.3618 14.6382 16.186 15.4116 15.7993H16.0093Z" fill="white"/>
</svg>
