<svg width="16" height="15" viewBox="0 0 16 15" fill="none" xmlns="http://www.w3.org/2000/svg">
<path d="M14.3625 4.95312C15.0735 5.0625 15.3743 5.9375 14.8547 6.45703L11.9563 9.27344L12.6399 13.2383C12.7219 13.8125 12.2844 14.25 11.7649 14.25C11.6282 14.25 11.4915 14.2227 11.3547 14.168L7.77271 12.2812L4.21802 14.168C4.0813 14.2227 3.94458 14.25 3.80786 14.25C3.28833 14.25 2.82349 13.8125 2.93286 13.2383L3.61646 9.27344L0.718018 6.45703C0.198486 5.9375 0.499268 5.0625 1.21021 4.95312L5.20239 4.37891L7.00708 0.742188C7.17114 0.414062 7.47192 0.25 7.77271 0.25C8.10083 0.25 8.40161 0.414062 8.56567 0.742188L10.3704 4.37891L14.3625 4.95312ZM11.0266 8.31641L13.2961 6.12891L10.179 5.66406L9.49536 5.58203L9.19458 4.95312L7.80005 2.13672L7.77271 10.8047L8.40161 11.1328L11.1907 12.582L10.6438 9.49219L10.5344 8.80859L11.0266 8.31641Z" fill="#C69B7B"/>
</svg>
