<svg width="10" height="6" viewBox="0 0 10 6" fill="none" xmlns="http://www.w3.org/2000/svg">
<path d="M0.90354 5.14351C0.931925 5.21203 0.97999 5.2706 1.04166 5.3118C1.10333 5.35301 1.17583 5.375 1.25 5.375L8.75 5.375C8.82417 5.375 8.89667 5.35301 8.95834 5.3118C9.02001 5.27059 9.06807 5.21203 9.09646 5.1435C9.12484 5.07498 9.13226 4.99958 9.11779 4.92683C9.10332 4.85409 9.0676 4.78727 9.01516 4.73483L5.26516 0.984839C5.23034 0.950016 5.189 0.922392 5.1435 0.903545C5.09801 0.884699 5.04924 0.874999 5 0.874999C4.95075 0.874999 4.90199 0.884699 4.85649 0.903545C4.811 0.922392 4.76966 0.950016 4.73484 0.984839L0.984838 4.73483C0.932391 4.78727 0.896673 4.85409 0.882202 4.92684C0.867732 4.99958 0.875157 5.07498 0.90354 5.14351Z" fill="#242A31"/>
<path d="M0.90354 5.14351C0.931925 5.21203 0.97999 5.2706 1.04166 5.3118C1.10333 5.35301 1.17583 5.375 1.25 5.375L8.75 5.375C8.82417 5.375 8.89667 5.35301 8.95834 5.3118C9.02001 5.27059 9.06807 5.21203 9.09646 5.1435C9.12484 5.07498 9.13226 4.99958 9.11779 4.92683C9.10332 4.85409 9.0676 4.78727 9.01516 4.73483L5.26516 0.984839C5.23034 0.950016 5.189 0.922392 5.1435 0.903545C5.09801 0.884699 5.04924 0.874999 5 0.874999C4.95075 0.874999 4.90199 0.884699 4.85649 0.903545C4.811 0.922392 4.76966 0.950016 4.73484 0.984839L0.984838 4.73483C0.932391 4.78727 0.896673 4.85409 0.882202 4.92684C0.867732 4.99958 0.875157 5.07498 0.90354 5.14351Z" fill="black" fill-opacity="0.2"/>
</svg>
