<svg width="10" height="6" viewBox="0 0 10 6" fill="none" xmlns="http://www.w3.org/2000/svg">
<path d="M9.09646 0.856491C9.06808 0.787969 9.02001 0.729403 8.95834 0.688198C8.89667 0.646993 8.82417 0.625 8.75 0.625H1.25C1.17583 0.625 1.10333 0.646993 1.04166 0.6882C0.979991 0.729406 0.931926 0.787974 0.903544 0.856498C0.875161 0.925021 0.867736 1.00042 0.882207 1.07317C0.896678 1.14591 0.932395 1.21273 0.984842 1.26517L4.73484 5.01516C4.76966 5.04998 4.811 5.07761 4.8565 5.09645C4.90199 5.1153 4.95076 5.125 5 5.125C5.04925 5.125 5.09801 5.1153 5.14351 5.09645C5.189 5.07761 5.23034 5.04998 5.26516 5.01516L9.01516 1.26517C9.06761 1.21273 9.10333 1.14591 9.1178 1.07316C9.13227 1.00042 9.12484 0.925016 9.09646 0.856491Z" fill="#242A31"/>
<path d="M9.09646 0.856491C9.06808 0.787969 9.02001 0.729403 8.95834 0.688198C8.89667 0.646993 8.82417 0.625 8.75 0.625H1.25C1.17583 0.625 1.10333 0.646993 1.04166 0.6882C0.979991 0.729406 0.931926 0.787974 0.903544 0.856498C0.875161 0.925021 0.867736 1.00042 0.882207 1.07317C0.896678 1.14591 0.932395 1.21273 0.984842 1.26517L4.73484 5.01516C4.76966 5.04998 4.811 5.07761 4.8565 5.09645C4.90199 5.1153 4.95076 5.125 5 5.125C5.04925 5.125 5.09801 5.1153 5.14351 5.09645C5.189 5.07761 5.23034 5.04998 5.26516 5.01516L9.01516 1.26517C9.06761 1.21273 9.10333 1.14591 9.1178 1.07316C9.13227 1.00042 9.12484 0.925016 9.09646 0.856491Z" fill="black" fill-opacity="0.2"/>
</svg>
