<svg width="46" height="45" viewBox="0 0 46 45" fill="none" xmlns="http://www.w3.org/2000/svg">
<path d="M29.475 14.875C30.0727 14.875 30.6 15.4023 30.6 16.0352V29.5C30.6 30.1328 30.0727 30.625 29.475 30.625H15.9398C15.3422 30.625 14.85 30.1328 14.85 29.5V16.0352C14.85 15.4023 15.3422 14.875 15.9398 14.875H29.475ZM19.5961 28.375V20.8867H17.2758V28.375H19.5961ZM18.4359 19.832C19.1742 19.832 19.7719 19.2344 19.7719 18.4961C19.7719 17.7578 19.1742 17.125 18.4359 17.125C17.6625 17.125 17.0648 17.7578 17.0648 18.4961C17.0648 19.2344 17.6625 19.832 18.4359 19.832ZM28.35 28.375V24.2617C28.35 22.2578 27.893 20.6758 25.5375 20.6758C24.4125 20.6758 23.6391 21.3086 23.3227 21.9062H23.2875V20.8867H21.0727V28.375H23.393V24.6836C23.393 23.6992 23.5688 22.75 24.7992 22.75C25.9945 22.75 25.9945 23.875 25.9945 24.7188V28.375H28.35Z" fill="#7BB7C6"/>
<rect x="0.630005" y="0.5" width="44" height="44" rx="22" stroke="#7BB7C6"/>
</svg>
