<svg width="46" height="45" viewBox="0 0 46 45" fill="none" xmlns="http://www.w3.org/2000/svg">
<path d="M22.725 18.707C24.9398 18.707 26.768 20.5352 26.768 22.75C26.768 25 24.9398 26.793 22.725 26.793C20.475 26.793 18.682 25 18.682 22.75C18.682 20.5352 20.475 18.707 22.725 18.707ZM22.725 25.3867C24.1664 25.3867 25.3266 24.2266 25.3266 22.75C25.3266 21.3086 24.1664 20.1484 22.725 20.1484C21.2484 20.1484 20.0883 21.3086 20.0883 22.75C20.0883 24.2266 21.2836 25.3867 22.725 25.3867ZM27.8578 18.5664C27.8578 19.0938 27.4359 19.5156 26.9086 19.5156C26.3813 19.5156 25.9594 19.0938 25.9594 18.5664C25.9594 18.0391 26.3813 17.6172 26.9086 17.6172C27.4359 17.6172 27.8578 18.0391 27.8578 18.5664ZM30.5297 19.5156C30.6 20.8164 30.6 24.7188 30.5297 26.0195C30.4594 27.2852 30.1781 28.375 29.2641 29.3242C28.35 30.2383 27.225 30.5195 25.9594 30.5898C24.6586 30.6602 20.7563 30.6602 19.4555 30.5898C18.1898 30.5195 17.1 30.2383 16.1508 29.3242C15.2367 28.375 14.9555 27.2852 14.8852 26.0195C14.8148 24.7188 14.8148 20.8164 14.8852 19.5156C14.9555 18.25 15.2367 17.125 16.1508 16.2109C17.1 15.2969 18.1898 15.0156 19.4555 14.9453C20.7563 14.875 24.6586 14.875 25.9594 14.9453C27.225 15.0156 28.35 15.2969 29.2641 16.2109C30.1781 17.125 30.4594 18.25 30.5297 19.5156ZM28.8422 27.3906C29.2641 26.3711 29.1586 23.9102 29.1586 22.75C29.1586 21.625 29.2641 19.1641 28.8422 18.1094C28.5609 17.4414 28.0336 16.8789 27.3656 16.6328C26.3109 16.2109 23.85 16.3164 22.725 16.3164C21.5648 16.3164 19.1039 16.2109 18.0844 16.6328C17.3813 16.9141 16.8539 17.4414 16.5727 18.1094C16.1508 19.1641 16.2563 21.625 16.2563 22.75C16.2563 23.9102 16.1508 26.3711 16.5727 27.3906C16.8539 28.0938 17.3813 28.6211 18.0844 28.9023C19.1039 29.3242 21.5648 29.2188 22.725 29.2188C23.85 29.2188 26.3109 29.3242 27.3656 28.9023C28.0336 28.6211 28.5961 28.0938 28.8422 27.3906Z" fill="#7BB7C6"/>
<rect x="0.630005" y="0.5" width="44" height="44" rx="22" stroke="#7BB7C6"/>
</svg>
