<svg width="46" height="45" viewBox="0 0 46 45" fill="none" xmlns="http://www.w3.org/2000/svg">
<path d="M29.7667 19.0938C29.7667 19.2695 29.7667 19.4102 29.7667 19.5859C29.7667 24.4727 26.0753 30.0625 19.2902 30.0625C17.1808 30.0625 15.2472 29.4648 13.63 28.4102C13.9113 28.4453 14.1925 28.4805 14.5089 28.4805C16.2316 28.4805 17.8136 27.8828 19.0792 26.8984C17.462 26.8633 16.0909 25.8086 15.6339 24.332C15.88 24.3672 16.0909 24.4023 16.337 24.4023C16.6534 24.4023 17.005 24.332 17.2863 24.2617C15.5988 23.9102 14.3331 22.4336 14.3331 20.6406V20.6055C14.8253 20.8867 15.423 21.0273 16.0206 21.0625C15.0011 20.3945 14.3683 19.2695 14.3683 18.0039C14.3683 17.3008 14.5441 16.668 14.8605 16.1406C16.6886 18.3555 19.4308 19.832 22.4894 20.0078C22.4191 19.7266 22.3839 19.4453 22.3839 19.1641C22.3839 17.125 24.0363 15.4727 26.0753 15.4727C27.13 15.4727 28.0792 15.8945 28.7823 16.6328C29.5909 16.457 30.3995 16.1406 31.1027 15.7188C30.8214 16.5977 30.2589 17.3008 29.4855 17.7578C30.2238 17.6875 30.962 17.4766 31.5948 17.1953C31.1027 17.9336 30.4698 18.5664 29.7667 19.0938Z" fill="#7BB7C6"/>
<rect x="0.630005" y="0.5" width="44" height="44" rx="22" stroke="#7BB7C6"/>
</svg>
