<svg width="31" height="30" viewBox="0 0 31 30" fill="none" xmlns="http://www.w3.org/2000/svg">
<path d="M3.3125 1.625H27.6875C29.2109 1.625 30.5 2.91406 30.5 4.4375V25.0625C30.5 26.6445 29.2109 27.875 27.6875 27.875H3.3125C1.73047 27.875 0.5 26.6445 0.5 25.0625V4.4375C0.5 2.91406 1.73047 1.625 3.3125 1.625ZM3.3125 3.5C2.78516 3.5 2.375 3.96875 2.375 4.4375V5.02344C2.375 5.25781 2.49219 5.375 2.72656 5.375H9.52344C9.69922 5.375 9.875 5.25781 9.875 5.02344V3.85156C9.875 3.67578 9.69922 3.5 9.52344 3.5H3.3125ZM28.2734 9.125C28.4492 9.125 28.625 9.00781 28.625 8.77344V4.4375C28.625 3.96875 28.1562 3.5 27.6875 3.5H12.8633C12.7461 3.5 12.6289 3.55859 12.5703 3.67578L10.8125 6.3125H2.72656C2.49219 6.3125 2.375 6.48828 2.375 6.66406V8.77344C2.375 9.00781 2.49219 9.125 2.72656 9.125H28.2734ZM15.5 24.5938C19.3672 24.5938 22.5312 21.4883 22.5312 17.5625C22.5312 13.6953 19.3672 10.5312 15.5 10.5312C11.5742 10.5312 8.46875 13.6953 8.46875 17.5625C8.46875 21.4883 11.5742 24.5938 15.5 24.5938ZM15.5 12.4062C18.3125 12.4062 20.6562 14.75 20.6562 17.5625C20.6562 20.4336 18.3125 22.7188 15.5 22.7188C12.6289 22.7188 10.3438 20.4336 10.3438 17.5625C10.3438 14.75 12.6289 12.4062 15.5 12.4062ZM12.6875 18.5C13.1562 18.5 13.625 18.0898 13.625 17.5625C13.625 16.5664 14.4453 15.6875 15.5 15.6875C15.9688 15.6875 16.4375 15.2773 16.4375 14.75C16.4375 14.2812 15.9688 13.8125 15.5 13.8125C13.3906 13.8125 11.75 15.5117 11.75 17.5625C11.75 18.0898 12.1602 18.5 12.6875 18.5Z" fill="white"/>
</svg>
