<svg width="27" height="28" viewBox="0 0 27 28" fill="none" xmlns="http://www.w3.org/2000/svg">
<path d="M13.625 14.25C11.1289 14.25 9.125 12.2461 9.125 9.75C9.125 7.28906 11.1289 5.25 13.625 5.25C16.0859 5.25 18.125 7.28906 18.125 9.75C18.125 12.2461 16.0859 14.25 13.625 14.25ZM16.7539 15.375C19.3555 15.375 21.5 17.5195 21.5 20.1211V21.5625C21.5 22.5117 20.7266 23.25 19.8125 23.25H7.4375C6.48828 23.25 5.75 22.5117 5.75 21.5625V20.1211C5.75 17.5195 7.85938 15.375 10.4609 15.375H11.0586C11.832 15.7617 12.7109 15.9375 13.625 15.9375C14.5391 15.9375 15.3828 15.7617 16.1562 15.375H16.7539Z" fill="white"/>
</svg>
