<svg width="39" height="40" viewBox="0 0 39 40" fill="none" xmlns="http://www.w3.org/2000/svg">
<path d="M19.6024 0.575195C30.3055 0.575195 38.9774 9.24707 38.9774 19.9502C38.9774 30.6533 30.3055 39.3252 19.6024 39.3252C8.89929 39.3252 0.227417 30.6533 0.227417 19.9502C0.227417 9.24707 8.89929 0.575195 19.6024 0.575195ZM26.7899 25.0283C26.9462 24.8721 27.1024 24.5596 27.1024 24.2471C27.1024 23.8564 26.868 23.5439 26.6337 23.3096L22.1024 19.9502V8.7002C22.1024 8.0752 21.4774 7.4502 20.8524 7.4502H18.3524C17.6493 7.4502 17.1024 8.0752 17.1024 8.7002V20.8877C17.1024 21.9033 17.493 22.7627 18.2743 23.3096L23.5087 27.2158C23.6649 27.3721 23.9774 27.5283 24.2118 27.5283C24.6805 27.5283 24.993 27.2939 25.2274 26.9814L26.7899 25.0283Z" fill="#C69B7B"/>
</svg>
