<svg width="31" height="42" viewBox="0 0 31 42" fill="none" xmlns="http://www.w3.org/2000/svg">
<path d="M13.5551 40.1689C2.1488 23.7627 0.117554 22.0439 0.117554 15.9502C0.117554 7.66895 6.75818 0.950195 15.1176 0.950195C23.3988 0.950195 30.1176 7.66895 30.1176 15.9502C30.1176 22.0439 28.0082 23.7627 16.6019 40.1689C15.8988 41.2627 14.2582 41.2627 13.5551 40.1689ZM15.1176 22.2002C18.5551 22.2002 21.3676 19.4658 21.3676 15.9502C21.3676 12.5127 18.5551 9.7002 15.1176 9.7002C11.6019 9.7002 8.86755 12.5127 8.86755 15.9502C8.86755 19.4658 11.6019 22.2002 15.1176 22.2002Z" fill="#C69B7B"/>
</svg>
